<?xml version="1.0" encoding="utf-8"?>
<!-- Generator: Adobe Illustrator 18.0.0, SVG Export Plug-In . SVG Version: 6.00 Build 0)  -->
<!DOCTYPE svg PUBLIC "-//W3C//DTD SVG 1.1//EN" "http://www.w3.org/Graphics/SVG/1.1/DTD/svg11.dtd">
<svg version="1.1" id="Layer_1" xmlns="http://www.w3.org/2000/svg" xmlns:xlink="http://www.w3.org/1999/xlink" x="0px" y="0px"
	 viewBox="0 0 502 150" enable-background="new 0 0 502 150" xml:space="preserve">
<path fill="#1564b3" d="M433.6,12.4c-9.7,0.4-22.2,2.2-31.6,6.9c1.3,3.5,0.4,9-2.8,15.3c-8.1,15.6-16,33.2-23.6,52.6
	c-9.8-25.7-52.3-16.6-52.3-38.9c0-8.2,6.9-13.8,16.8-13.8c11.8,0,17,7.5,17,16.8v3.9h6.5c10.5,0,18.1-5.8,18.1-16.1
	c0-16.3-17.2-26.9-40.7-26.9c-18,0-33,6.2-41.3,17.8V14.1h-27.8v66.7c0,22.4-10.5,30.4-25,30.4c-14.8,0-24.3-8-24.3-30.4V13.4
	c-24.3,0-27.8,0-27.8,14.2v8.6c-0.9-5.1-3.1-7.8-8.4-7.8h-37.9c-10.6,0-17.1,0-20.8,1.9c-10.4-11.6-26.4-18-46.6-18
	c-37.5,0-60.3,21.7-60.3,58.5c0,37,24.1,65.6,60.3,65.6c17.1,0,31.5-6.4,42-17v16.3h26.7v-35.3h38.9v-21h-38.9V51.4h45.1V84
	c0,34.4,22.6,52.3,51.9,52.3c29.1,0,53.1-15.5,53.1-52.3v-8.9c14.7,17.8,47.3,14.2,47.3,27.4c0,7.7-8.2,10.6-19.4,10.6
	c-9.7,0-19.8-2.1-28.6-6.2v8.2c0,16.3,16.6,21.1,33.8,21.1c10.4,0,20.1-2.3,27.8-6.8c-0.5,1.6-1.1,3.3-1.6,5h30.8l6-20.9h46.7
	l7.1,20.9h31v-2.2L433.6,12.4z M81,112.6c-19.1,0-31.4-17.7-31.4-41.8C49.6,48.3,61,35.4,81,35.4c20,0,31.4,12.5,31.4,35.3
	C112.3,95.2,100,112.6,81,112.6z M403.1,90.9c5-14.8,10.8-29.5,17-43.3l14.8,43.3H403.1z"/>
</svg>
